# xmcd
#
# Track frame offsets:
#	150
#	14012
#	25904
#	39958
#	53335
#
# Disc length: 890 seconds
#
# Revision: 0
# Processed by: cddbd v1.5.2PL0 Copyright (c) Steve Scherf et al.
# Submitted via: FairStars CD Ripper 2.00
#
DISCID=30037805
DTITLE=The Belles - Nobody Knows Me Better
DYEAR=2019
DGENRE=Country
TTITLE0=Beautiful Girl
TTITLE1=Nobody Knows Me Better
TTITLE2=Fire
TTITLE3=Didn't Break Mine
TTITLE4=My Mother's Daughter
EXTD=
EXTT0=
EXTT1=
EXTT2=
EXTT3=
EXTT4=
PLAYORDER=
